<mxfile host="app.diagrams.net" modified="2023-06-29T02:48:32.843Z" agent="Mozilla/5.0 (Windows NT 10.0; Win64; x64; rv:109.0) Gecko/20100101 Firefox/114.0" etag="OvZ5ZAbWBrevdTEU6ETG" version="21.5.2" type="github">
  <diagram name="Page-1" id="c7488fd3-1785-93aa-aadb-54a6760d102a">
    <mxGraphModel dx="1434" dy="718" grid="1" gridSize="10" guides="1" tooltips="1" connect="1" arrows="1" fold="1" page="1" pageScale="1" pageWidth="1100" pageHeight="850" background="none" math="0" shadow="0">
      <root>
        <mxCell id="0" />
        <mxCell id="1" parent="0" />
        <mxCell id="bkW-yM8PBzkR5NHwado4-2" style="edgeStyle=orthogonalEdgeStyle;rounded=0;orthogonalLoop=1;jettySize=auto;html=1;" edge="1" parent="1" source="bkW-yM8PBzkR5NHwado4-1">
          <mxGeometry relative="1" as="geometry">
            <mxPoint x="300" y="190" as="targetPoint" />
          </mxGeometry>
        </mxCell>
        <mxCell id="bkW-yM8PBzkR5NHwado4-1" value="Yakiimo" style="rounded=1;whiteSpace=wrap;html=1;" vertex="1" parent="1">
          <mxGeometry x="240" y="70" width="120" height="60" as="geometry" />
        </mxCell>
        <mxCell id="bkW-yM8PBzkR5NHwado4-5" style="edgeStyle=orthogonalEdgeStyle;rounded=0;orthogonalLoop=1;jettySize=auto;html=1;" edge="1" parent="1" source="bkW-yM8PBzkR5NHwado4-3">
          <mxGeometry relative="1" as="geometry">
            <mxPoint x="300" y="350" as="targetPoint" />
          </mxGeometry>
        </mxCell>
        <mxCell id="bkW-yM8PBzkR5NHwado4-6" style="edgeStyle=orthogonalEdgeStyle;rounded=0;orthogonalLoop=1;jettySize=auto;html=1;" edge="1" parent="1">
          <mxGeometry relative="1" as="geometry">
            <mxPoint x="467" y="230" as="targetPoint" />
            <mxPoint x="327" y="230" as="sourcePoint" />
          </mxGeometry>
        </mxCell>
        <mxCell id="bkW-yM8PBzkR5NHwado4-3" value="Manju" style="rhombus;whiteSpace=wrap;html=1;" vertex="1" parent="1">
          <mxGeometry x="260" y="190" width="80" height="80" as="geometry" />
        </mxCell>
        <mxCell id="bkW-yM8PBzkR5NHwado4-12" value="" style="edgeStyle=orthogonalEdgeStyle;rounded=0;orthogonalLoop=1;jettySize=auto;html=1;" edge="1" parent="1" source="bkW-yM8PBzkR5NHwado4-4" target="bkW-yM8PBzkR5NHwado4-11">
          <mxGeometry relative="1" as="geometry" />
        </mxCell>
        <mxCell id="bkW-yM8PBzkR5NHwado4-15" value="" style="edgeStyle=orthogonalEdgeStyle;rounded=0;orthogonalLoop=1;jettySize=auto;html=1;" edge="1" parent="1" source="bkW-yM8PBzkR5NHwado4-4">
          <mxGeometry relative="1" as="geometry">
            <mxPoint x="300" y="490" as="targetPoint" />
          </mxGeometry>
        </mxCell>
        <mxCell id="bkW-yM8PBzkR5NHwado4-4" value="before deploy" style="rounded=0;whiteSpace=wrap;html=1;" vertex="1" parent="1">
          <mxGeometry x="240" y="360" width="120" height="60" as="geometry" />
        </mxCell>
        <mxCell id="bkW-yM8PBzkR5NHwado4-7" value="success" style="text;strokeColor=none;align=center;fillColor=none;html=1;verticalAlign=middle;whiteSpace=wrap;rounded=0;" vertex="1" parent="1">
          <mxGeometry x="370" y="190" width="60" height="30" as="geometry" />
        </mxCell>
        <mxCell id="bkW-yM8PBzkR5NHwado4-9" value="return" style="rounded=0;whiteSpace=wrap;html=1;" vertex="1" parent="1">
          <mxGeometry x="473" y="200" width="120" height="60" as="geometry" />
        </mxCell>
        <mxCell id="bkW-yM8PBzkR5NHwado4-10" value="fail" style="text;strokeColor=none;align=center;fillColor=none;html=1;verticalAlign=middle;whiteSpace=wrap;rounded=0;" vertex="1" parent="1">
          <mxGeometry x="300" y="290" width="60" height="30" as="geometry" />
        </mxCell>
        <mxCell id="bkW-yM8PBzkR5NHwado4-11" value="return" style="rounded=0;whiteSpace=wrap;html=1;" vertex="1" parent="1">
          <mxGeometry x="440" y="360" width="120" height="60" as="geometry" />
        </mxCell>
        <mxCell id="bkW-yM8PBzkR5NHwado4-13" value="no" style="text;strokeColor=none;align=center;fillColor=none;html=1;verticalAlign=middle;whiteSpace=wrap;rounded=0;" vertex="1" parent="1">
          <mxGeometry x="370" y="360" width="60" height="30" as="geometry" />
        </mxCell>
        <mxCell id="bkW-yM8PBzkR5NHwado4-16" value="yes" style="text;strokeColor=none;align=center;fillColor=none;html=1;verticalAlign=middle;whiteSpace=wrap;rounded=0;" vertex="1" parent="1">
          <mxGeometry x="300" y="440" width="60" height="30" as="geometry" />
        </mxCell>
        <mxCell id="bkW-yM8PBzkR5NHwado4-18" style="edgeStyle=orthogonalEdgeStyle;rounded=0;orthogonalLoop=1;jettySize=auto;html=1;" edge="1" parent="1" source="bkW-yM8PBzkR5NHwado4-17">
          <mxGeometry relative="1" as="geometry">
            <mxPoint x="300" y="610" as="targetPoint" />
          </mxGeometry>
        </mxCell>
        <mxCell id="bkW-yM8PBzkR5NHwado4-17" value="queue box" style="rounded=0;whiteSpace=wrap;html=1;" vertex="1" parent="1">
          <mxGeometry x="240" y="490" width="120" height="60" as="geometry" />
        </mxCell>
        <mxCell id="bkW-yM8PBzkR5NHwado4-21" value="" style="edgeStyle=orthogonalEdgeStyle;rounded=0;orthogonalLoop=1;jettySize=auto;html=1;" edge="1" parent="1" source="bkW-yM8PBzkR5NHwado4-19" target="bkW-yM8PBzkR5NHwado4-20">
          <mxGeometry relative="1" as="geometry" />
        </mxCell>
        <mxCell id="bkW-yM8PBzkR5NHwado4-24" value="" style="edgeStyle=orthogonalEdgeStyle;rounded=0;orthogonalLoop=1;jettySize=auto;html=1;" edge="1" parent="1" source="bkW-yM8PBzkR5NHwado4-19" target="bkW-yM8PBzkR5NHwado4-23">
          <mxGeometry relative="1" as="geometry" />
        </mxCell>
        <mxCell id="bkW-yM8PBzkR5NHwado4-19" value="expire N" style="rhombus;whiteSpace=wrap;html=1;" vertex="1" parent="1">
          <mxGeometry x="260" y="610" width="80" height="80" as="geometry" />
        </mxCell>
        <mxCell id="bkW-yM8PBzkR5NHwado4-20" value="return" style="whiteSpace=wrap;html=1;" vertex="1" parent="1">
          <mxGeometry x="400" y="620" width="120" height="60" as="geometry" />
        </mxCell>
        <mxCell id="bkW-yM8PBzkR5NHwado4-22" value="no" style="text;strokeColor=none;align=center;fillColor=none;html=1;verticalAlign=middle;whiteSpace=wrap;rounded=0;" vertex="1" parent="1">
          <mxGeometry x="330" y="610" width="60" height="30" as="geometry" />
        </mxCell>
        <mxCell id="bkW-yM8PBzkR5NHwado4-23" value="set cart status to fail" style="whiteSpace=wrap;html=1;" vertex="1" parent="1">
          <mxGeometry x="240" y="780" width="120" height="60" as="geometry" />
        </mxCell>
        <mxCell id="bkW-yM8PBzkR5NHwado4-25" value="yes" style="text;strokeColor=none;align=center;fillColor=none;html=1;verticalAlign=middle;whiteSpace=wrap;rounded=0;" vertex="1" parent="1">
          <mxGeometry x="300" y="720" width="80" height="30" as="geometry" />
        </mxCell>
      </root>
    </mxGraphModel>
  </diagram>
</mxfile>
